<svg xmlns="http://www.w3.org/2000/svg" viewBox="0 0 48 48"><defs><style>.cls-1{fill:#fc6;}.cls-2{fill:#ffde76;}.cls-3{fill:#be927c;}</style></defs><title>Shopping Bag</title><g id="Shopping_Bag" data-name="Shopping Bag"><path class="cls-1" d="M42.13,45a4,4,0,0,1-3.46,2H9.33a4,4,0,0,1-4-4.31l2.35-28a4,4,0,0,1,4-3.67H36.32a4,4,0,0,1,4,3.67C42.82,44.64,43,43.48,42.13,45Z"/><path class="cls-2" d="M42.13,45H20.33a4,4,0,0,1-4-4.31C18.88,10.37,18.57,12.1,19.22,11h17.1a4,4,0,0,1,4,3.67C42.82,44.64,43,43.48,42.13,45Z"/><path class="cls-3" d="M35,18H34V11a10,10,0,0,0-20,0v7H13a1,1,0,0,0,0,2h4a1,1,0,0,0,0-2H16V11a8,8,0,0,1,16,0v7H31a1,1,0,0,0,0,2h4A1,1,0,0,0,35,18Z"/></g></svg>