<?xml version="1.0" encoding="utf-8"?>
<!-- Generator: Adobe Illustrator 24.0.0, SVG Export Plug-In . SVG Version: 6.00 Build 0)  -->
<svg version="1.1" xmlns="http://www.w3.org/2000/svg" xmlns:xlink="http://www.w3.org/1999/xlink" x="0px" y="0px"
	 viewBox="0 0 64 64" enable-background="new 0 0 64 64" xml:space="preserve">
<g id="Captions">
</g>
<g id="Icons">
	<g>
		<g>
			<g>
				<path fill="#F0F0F0" d="M48,40H16c-1.105,0-2-0.895-2-2V14h36v24C50,39.105,49.105,40,48,40z"/>
			</g>
			<g>
				<g>
					<path fill="#D2D2D2" d="M38,40v-1c0-2.209-1.791-4-4-4h-4c-2.209,0-4,1.791-4,4v1H38z"/>
				</g>
				<g>
					<path fill="#D2D2D2" d="M44,37v3h4c1.105,0,2-0.895,2-2v-3h-4C44.895,35,44,35.895,44,37z"/>
				</g>
				<g>
					<path fill="#D2D2D2" d="M16,40h4v-3c0-1.105-0.895-2-2-2h-4v3C14,39.105,14.895,40,16,40z"/>
				</g>
			</g>
			<g>
				<path fill="#00A0C8" d="M48,8H16c-1.105,0-2,0.895-2,2v4h36v-4C50,8.895,49.105,8,48,8z"/>
			</g>
			<g>
				<g>
					<path fill="#0082AA" d="M45,12c1.105,0,2-0.895,2-2V8h-4v2C43,11.105,43.895,12,45,12z"/>
				</g>
				<g>
					<path fill="#0082AA" d="M21.652,11.897C22.485,11.633,23,10.79,23,9.916V8h-4v2C19,11.316,20.271,12.335,21.652,11.897z"/>
				</g>
				<g>
					<path fill="#0082AA" d="M33,12c1.105,0,2-0.895,2-2V8h-4v2C31,11.105,31.895,12,33,12z"/>
				</g>
			</g>
			<g>
				<path fill="#0A5078" d="M20,12L20,12c-1.105,0-2-0.895-2-2V6c0-1.105,0.895-2,2-2h0c1.105,0,2,0.895,2,2v4
					C22,11.105,21.105,12,20,12z"/>
			</g>
			<g>
				<path fill="#0A5078" d="M32,12L32,12c-1.105,0-2-0.895-2-2V6c0-1.105,0.895-2,2-2h0c1.105,0,2,0.895,2,2v4
					C34,11.105,33.105,12,32,12z"/>
			</g>
			<g>
				<path fill="#0A5078" d="M44,12L44,12c-1.105,0-2-0.895-2-2V6c0-1.105,0.895-2,2-2h0c1.105,0,2,0.895,2,2v4
					C46,11.105,45.105,12,44,12z"/>
			</g>
		</g>
		<g>
			<g>
				<g>
					<path fill="#C80A50" d="M33,36h-2c-2.761,0-5,2.239-5,5v10c0,0.552,0.448,1,1,1h10c0.552,0,1-0.448,1-1V41
						C38,38.239,35.761,36,33,36z"/>
				</g>
				<g>
					<path fill="#C80A50" d="M40,60H24v-6c0-2.209,1.791-4,4-4h8c2.209,0,4,1.791,4,4V60z"/>
				</g>
				<g>
					<path fill="#00A0C8" d="M28,50c0,2.209,1.791,4,4,4s4-1.791,4-4H28z"/>
				</g>
				<g>
					<path fill="#D2AA82" d="M32,52L32,52c-1.105,0-2-0.895-2-2v-3h4v3C34,51.105,33.105,52,32,52z"/>
				</g>
				<g>
					<path fill="#F0C8A0" d="M33,48h-2c-1.657,0-3-1.343-3-3v-3c0-1.105,0.895-2,2-2h1v0c0,1.105,0.895,2,2,2h3v3
						C36,46.657,34.657,48,33,48z"/>
				</g>
			</g>
			<g>
				<g>
					<path fill="#FAB400" d="M24,60H8v-9c0-1.657,1.343-3,3-3h10c1.657,0,3,1.343,3,3V60z"/>
				</g>
				<g>
					<path fill="#00A0C8" d="M12,48c0,2.209,1.791,4,4,4s4-1.791,4-4H12z"/>
				</g>
				<g>
					<path fill="#A00028" d="M24,54v6h1v-8.645C24.378,52.06,24,52.986,24,54z"/>
				</g>
				<g>
					<path fill="#D2AA82" d="M16,50L16,50c-1.105,0-2-0.895-2-2v-3h4v3C18,49.105,17.105,50,16,50z"/>
				</g>
				<g>
					<path fill="#F0C8A0" d="M17,46h-2c-1.657,0-3-1.343-3-3v-3c0-1.105,0.895-2,2-2h4c1.105,0,2,0.895,2,2v3
						C20,44.657,18.657,46,17,46z"/>
				</g>
				<g>
					<path fill="#0A5078" d="M18,38h-4c-1.105,0-2,0.895-2,2v0v-2c0-1.105,0.895-2,2-2h4c1.105,0,2,0.895,2,2v2v0
						C20,38.895,19.105,38,18,38z"/>
				</g>
			</g>
			<g>
				<g>
					<path fill="#00A0C8" d="M56,60H40v-9c0-1.657,1.343-3,3-3h10c1.657,0,3,1.343,3,3V60z"/>
				</g>
				<g>
					<path fill="#0A5078" d="M44,48c0,2.209,1.791,4,4,4s4-1.791,4-4H44z"/>
				</g>
				<g>
					<path fill="#0082AA" d="M40.5,49.342C40.184,49.817,40,50.387,40,51v9h1v-9C41,50.387,40.816,49.817,40.5,49.342z"/>
				</g>
				<g>
					<path fill="#D2AA82" d="M48,50L48,50c-1.105,0-2-0.895-2-2v-3h4v3C50,49.105,49.105,50,48,50z"/>
				</g>
				<g>
					<path fill="#F0C8A0" d="M49,46h-2c-1.657,0-3-1.343-3-3v-3c0-1.105,0.895-2,2-2h4c1.105,0,2,0.895,2,2v3
						C52,44.657,50.657,46,49,46z"/>
				</g>
				<g>
					<path fill="#DC9600" d="M50,38h-4c-1.105,0-2,0.895-2,2v0v-2c0-1.105,0.895-2,2-2h4c1.105,0,2,0.895,2,2v2v0
						C52,38.895,51.105,38,50,38z"/>
				</g>
			</g>
		</g>
		<g>
			<g>
				<path fill="#C80A50" d="M22,33h-3c-0.552,0-1-0.448-1-1s0.448-1,1-1h3c1.103,0,2-0.897,2-2s-0.897-2-2-2c-2.206,0-4-1.794-4-4
					s1.794-4,4-4h3c0.552,0,1,0.448,1,1s-0.448,1-1,1h-3c-1.103,0-2,0.897-2,2s0.897,2,2,2c2.206,0,4,1.794,4,4S24.206,33,22,33z"/>
			</g>
			<g>
				<path fill="#C80A50" d="M32,33c-2.206,0-4-1.794-4-4v-9c0-0.552,0.448-1,1-1s1,0.448,1,1v9c0,1.103,0.897,2,2,2
					c1.103,0,2-0.897,2-2v-9c0-0.552,0.447-1,1-1s1,0.448,1,1v9C36,31.206,34.206,33,32,33z"/>
			</g>
			<g>
				<path fill="#C80A50" d="M45,33c-0.372,0-0.723-0.208-0.895-0.553L40,24.236V32c0,0.552-0.447,1-1,1s-1-0.448-1-1V20
					c0-0.464,0.319-0.867,0.771-0.973c0.446-0.107,0.917,0.111,1.124,0.526L44,27.764V20c0-0.552,0.447-1,1-1s1,0.448,1,1v12
					c0,0.464-0.319,0.867-0.771,0.973C45.153,32.991,45.076,33,45,33z"/>
			</g>
		</g>
		<g>
			<rect x="14" y="14" fill="#D2D2D2" width="36" height="1"/>
		</g>
	</g>
</g>
</svg>
